<svg xmlns="http://www.w3.org/2000/svg" width="1100" height="760" viewBox="0 0 1100 760">
<style>text{font-family:Arial,Malgun Gothic,sans-serif;font-size:12px;fill:#202124}.title{font-size:18px;font-weight:700}.small{font-size:10px}.axis{stroke:#60656f;stroke-width:1}.grid{stroke:#e5e7eb;stroke-width:1}.line{fill:none;stroke-width:1.7}.band{fill-opacity:.12}</style>
<rect width="100%" height="100%" fill="#ffffff"/><text class="title" x="24" y="30">ESP? GT amplitude_mean ?? (?: ??, ??: 1 ????)</text>
<text x="58" y="52" font-weight="700">ESP 1</text>
<rect x="58" y="62" width="195" height="275" fill="#fff" stroke="#d1d5db"/>
<line class="grid" x1="58" y1="62.0" x2="253" y2="62.0"/>
<line class="grid" x1="58" y1="130.75" x2="253" y2="130.75"/>
<line class="grid" x1="58" y1="199.5" x2="253" y2="199.5"/>
<line class="grid" x1="58" y1="268.25" x2="253" y2="268.25"/>
<line class="grid" x1="58" y1="337.0" x2="253" y2="337.0"/>
<line x1="78.0" y1="291.4" x2="78.0" y2="154.9" stroke="#9ca3af"/>
<circle cx="78.0" cy="223.1" r="3" fill="#1f77b4"/>
<text class="small" x="78.0" y="333" text-anchor="middle">0</text>
<line x1="103.8" y1="286.6" x2="103.8" y2="159.5" stroke="#9ca3af"/>
<circle cx="103.8" cy="223.0" r="3" fill="#1f77b4"/>
<text class="small" x="103.8" y="333" text-anchor="middle">1</text>
<line x1="129.7" y1="285.6" x2="129.7" y2="139.3" stroke="#9ca3af"/>
<circle cx="129.7" cy="212.4" r="3" fill="#1f77b4"/>
<text class="small" x="129.7" y="333" text-anchor="middle">2</text>
<line x1="155.5" y1="289.9" x2="155.5" y2="157.5" stroke="#9ca3af"/>
<circle cx="155.5" cy="223.7" r="3" fill="#1f77b4"/>
<text class="small" x="155.5" y="333" text-anchor="middle">3</text>
<line x1="181.3" y1="287.0" x2="181.3" y2="157.7" stroke="#9ca3af"/>
<circle cx="181.3" cy="222.3" r="3" fill="#1f77b4"/>
<text class="small" x="181.3" y="333" text-anchor="middle">4</text>
<line x1="207.2" y1="287.7" x2="207.2" y2="195.8" stroke="#9ca3af"/>
<circle cx="207.2" cy="241.8" r="3" fill="#1f77b4"/>
<text class="small" x="207.2" y="333" text-anchor="middle">5</text>
<line x1="233.0" y1="292.9" x2="233.0" y2="167.7" stroke="#9ca3af"/>
<circle cx="233.0" cy="230.3" r="3" fill="#1f77b4"/>
<text class="small" x="233.0" y="333" text-anchor="middle">6</text>
<polyline class="line" stroke="#1f77b4" points="78.0,223.1 103.8,223.0 129.7,212.4 155.5,223.7 181.3,222.3 207.2,241.8 233.0,230.3"/>
<text x="271" y="52" font-weight="700">ESP 2</text>
<rect x="271" y="62" width="195" height="275" fill="#fff" stroke="#d1d5db"/>
<line class="grid" x1="271" y1="62.0" x2="466" y2="62.0"/>
<line class="grid" x1="271" y1="130.75" x2="466" y2="130.75"/>
<line class="grid" x1="271" y1="199.5" x2="466" y2="199.5"/>
<line class="grid" x1="271" y1="268.25" x2="466" y2="268.25"/>
<line class="grid" x1="271" y1="337.0" x2="466" y2="337.0"/>
<line x1="291.0" y1="287.2" x2="291.0" y2="161.8" stroke="#9ca3af"/>
<circle cx="291.0" cy="224.5" r="3" fill="#1f77b4"/>
<text class="small" x="291.0" y="333" text-anchor="middle">0</text>
<line x1="316.8" y1="282.6" x2="316.8" y2="150.3" stroke="#9ca3af"/>
<circle cx="316.8" cy="216.5" r="3" fill="#1f77b4"/>
<text class="small" x="316.8" y="333" text-anchor="middle">1</text>
<line x1="342.7" y1="284.6" x2="342.7" y2="151.0" stroke="#9ca3af"/>
<circle cx="342.7" cy="217.8" r="3" fill="#1f77b4"/>
<text class="small" x="342.7" y="333" text-anchor="middle">2</text>
<line x1="368.5" y1="265.3" x2="368.5" y2="96.5" stroke="#9ca3af"/>
<circle cx="368.5" cy="180.9" r="3" fill="#1f77b4"/>
<text class="small" x="368.5" y="333" text-anchor="middle">3</text>
<line x1="394.3" y1="278.5" x2="394.3" y2="123.4" stroke="#9ca3af"/>
<circle cx="394.3" cy="200.9" r="3" fill="#1f77b4"/>
<text class="small" x="394.3" y="333" text-anchor="middle">4</text>
<line x1="420.2" y1="274.2" x2="420.2" y2="108.6" stroke="#9ca3af"/>
<circle cx="420.2" cy="191.4" r="3" fill="#1f77b4"/>
<text class="small" x="420.2" y="333" text-anchor="middle">5</text>
<line x1="446.0" y1="287.6" x2="446.0" y2="124.0" stroke="#9ca3af"/>
<circle cx="446.0" cy="205.8" r="3" fill="#1f77b4"/>
<text class="small" x="446.0" y="333" text-anchor="middle">6</text>
<polyline class="line" stroke="#1f77b4" points="291.0,224.5 316.8,216.5 342.7,217.8 368.5,180.9 394.3,200.9 420.2,191.4 446.0,205.8"/>
<text x="484" y="52" font-weight="700">ESP 3</text>
<rect x="484" y="62" width="195" height="275" fill="#fff" stroke="#d1d5db"/>
<line class="grid" x1="484" y1="62.0" x2="679" y2="62.0"/>
<line class="grid" x1="484" y1="130.75" x2="679" y2="130.75"/>
<line class="grid" x1="484" y1="199.5" x2="679" y2="199.5"/>
<line class="grid" x1="484" y1="268.25" x2="679" y2="268.25"/>
<line class="grid" x1="484" y1="337.0" x2="679" y2="337.0"/>
<line x1="504.0" y1="288.4" x2="504.0" y2="157.8" stroke="#9ca3af"/>
<circle cx="504.0" cy="223.1" r="3" fill="#1f77b4"/>
<text class="small" x="504.0" y="333" text-anchor="middle">0</text>
<line x1="529.8" y1="286.8" x2="529.8" y2="160.3" stroke="#9ca3af"/>
<circle cx="529.8" cy="223.6" r="3" fill="#1f77b4"/>
<text class="small" x="529.8" y="333" text-anchor="middle">1</text>
<line x1="555.7" y1="283.6" x2="555.7" y2="143.1" stroke="#9ca3af"/>
<circle cx="555.7" cy="213.3" r="3" fill="#1f77b4"/>
<text class="small" x="555.7" y="333" text-anchor="middle">2</text>
<line x1="581.5" y1="284.4" x2="581.5" y2="150.6" stroke="#9ca3af"/>
<circle cx="581.5" cy="217.5" r="3" fill="#1f77b4"/>
<text class="small" x="581.5" y="333" text-anchor="middle">3</text>
<line x1="607.3" y1="287.0" x2="607.3" y2="157.3" stroke="#9ca3af"/>
<circle cx="607.3" cy="222.2" r="3" fill="#1f77b4"/>
<text class="small" x="607.3" y="333" text-anchor="middle">4</text>
<line x1="633.2" y1="284.0" x2="633.2" y2="145.8" stroke="#9ca3af"/>
<circle cx="633.2" cy="214.9" r="3" fill="#1f77b4"/>
<text class="small" x="633.2" y="333" text-anchor="middle">5</text>
<line x1="659.0" y1="292.2" x2="659.0" y2="152.4" stroke="#9ca3af"/>
<circle cx="659.0" cy="222.3" r="3" fill="#1f77b4"/>
<text class="small" x="659.0" y="333" text-anchor="middle">6</text>
<polyline class="line" stroke="#1f77b4" points="504.0,223.1 529.8,223.6 555.7,213.3 581.5,217.5 607.3,222.2 633.2,214.9 659.0,222.3"/>
<text x="697" y="52" font-weight="700">ESP 4</text>
<rect x="697" y="62" width="195" height="275" fill="#fff" stroke="#d1d5db"/>
<line class="grid" x1="697" y1="62.0" x2="892" y2="62.0"/>
<line class="grid" x1="697" y1="130.75" x2="892" y2="130.75"/>
<line class="grid" x1="697" y1="199.5" x2="892" y2="199.5"/>
<line class="grid" x1="697" y1="268.25" x2="892" y2="268.25"/>
<line class="grid" x1="697" y1="337.0" x2="892" y2="337.0"/>
<line x1="717.0" y1="296.0" x2="717.0" y2="141.4" stroke="#9ca3af"/>
<circle cx="717.0" cy="218.7" r="3" fill="#1f77b4"/>
<text class="small" x="717.0" y="333" text-anchor="middle">0</text>
<line x1="742.8" y1="295.1" x2="742.8" y2="170.4" stroke="#9ca3af"/>
<circle cx="742.8" cy="232.7" r="3" fill="#1f77b4"/>
<text class="small" x="742.8" y="333" text-anchor="middle">1</text>
<line x1="768.7" y1="286.2" x2="768.7" y2="126.9" stroke="#9ca3af"/>
<circle cx="768.7" cy="206.5" r="3" fill="#1f77b4"/>
<text class="small" x="768.7" y="333" text-anchor="middle">2</text>
<line x1="794.5" y1="284.7" x2="794.5" y2="117.2" stroke="#9ca3af"/>
<circle cx="794.5" cy="200.9" r="3" fill="#1f77b4"/>
<text class="small" x="794.5" y="333" text-anchor="middle">3</text>
<line x1="820.3" y1="288.6" x2="820.3" y2="126.5" stroke="#9ca3af"/>
<circle cx="820.3" cy="207.5" r="3" fill="#1f77b4"/>
<text class="small" x="820.3" y="333" text-anchor="middle">4</text>
<line x1="846.2" y1="288.1" x2="846.2" y2="124.3" stroke="#9ca3af"/>
<circle cx="846.2" cy="206.2" r="3" fill="#1f77b4"/>
<text class="small" x="846.2" y="333" text-anchor="middle">5</text>
<line x1="872.0" y1="302.5" x2="872.0" y2="164.8" stroke="#9ca3af"/>
<circle cx="872.0" cy="233.7" r="3" fill="#1f77b4"/>
<text class="small" x="872.0" y="333" text-anchor="middle">6</text>
<polyline class="line" stroke="#1f77b4" points="717.0,218.7 742.8,232.7 768.7,206.5 794.5,200.9 820.3,207.5 846.2,206.2 872.0,233.7"/>
<text x="910" y="52" font-weight="700">ESP 5</text>
<rect x="910" y="62" width="195" height="275" fill="#fff" stroke="#d1d5db"/>
<line class="grid" x1="910" y1="62.0" x2="1105" y2="62.0"/>
<line class="grid" x1="910" y1="130.75" x2="1105" y2="130.75"/>
<line class="grid" x1="910" y1="199.5" x2="1105" y2="199.5"/>
<line class="grid" x1="910" y1="268.25" x2="1105" y2="268.25"/>
<line class="grid" x1="910" y1="337.0" x2="1105" y2="337.0"/>
<line x1="930.0" y1="295.6" x2="930.0" y2="171.3" stroke="#9ca3af"/>
<circle cx="930.0" cy="233.4" r="3" fill="#1f77b4"/>
<text class="small" x="930.0" y="333" text-anchor="middle">0</text>
<line x1="955.8" y1="297.1" x2="955.8" y2="168.4" stroke="#9ca3af"/>
<circle cx="955.8" cy="232.7" r="3" fill="#1f77b4"/>
<text class="small" x="955.8" y="333" text-anchor="middle">1</text>
<line x1="981.7" y1="293.4" x2="981.7" y2="154.5" stroke="#9ca3af"/>
<circle cx="981.7" cy="224.0" r="3" fill="#1f77b4"/>
<text class="small" x="981.7" y="333" text-anchor="middle">2</text>
<line x1="1007.5" y1="282.3" x2="1007.5" y2="130.7" stroke="#9ca3af"/>
<circle cx="1007.5" cy="206.5" r="3" fill="#1f77b4"/>
<text class="small" x="1007.5" y="333" text-anchor="middle">3</text>
<line x1="1033.3" y1="288.2" x2="1033.3" y2="149.1" stroke="#9ca3af"/>
<circle cx="1033.3" cy="218.7" r="3" fill="#1f77b4"/>
<text class="small" x="1033.3" y="333" text-anchor="middle">4</text>
<line x1="1059.2" y1="297.1" x2="1059.2" y2="167.4" stroke="#9ca3af"/>
<circle cx="1059.2" cy="232.3" r="3" fill="#1f77b4"/>
<text class="small" x="1059.2" y="333" text-anchor="middle">5</text>
<line x1="1085.0" y1="288.1" x2="1085.0" y2="144.0" stroke="#9ca3af"/>
<circle cx="1085.0" cy="216.0" r="3" fill="#1f77b4"/>
<text class="small" x="1085.0" y="333" text-anchor="middle">6</text>
<polyline class="line" stroke="#1f77b4" points="930.0,233.4 955.8,232.7 981.7,224.0 1007.5,206.5 1033.3,218.7 1059.2,232.3 1085.0,216.0"/>
<text x="58" y="385" font-weight="700">ESP 6</text>
<rect x="58" y="395" width="195" height="275" fill="#fff" stroke="#d1d5db"/>
<line class="grid" x1="58" y1="395.0" x2="253" y2="395.0"/>
<line class="grid" x1="58" y1="463.75" x2="253" y2="463.75"/>
<line class="grid" x1="58" y1="532.5" x2="253" y2="532.5"/>
<line class="grid" x1="58" y1="601.25" x2="253" y2="601.25"/>
<line class="grid" x1="58" y1="670.0" x2="253" y2="670.0"/>
<line x1="78.0" y1="611.3" x2="78.0" y2="470.0" stroke="#9ca3af"/>
<circle cx="78.0" cy="540.7" r="3" fill="#1f77b4"/>
<text class="small" x="78.0" y="666" text-anchor="middle">0</text>
<line x1="103.8" y1="614.0" x2="103.8" y2="472.8" stroke="#9ca3af"/>
<circle cx="103.8" cy="543.4" r="3" fill="#1f77b4"/>
<text class="small" x="103.8" y="666" text-anchor="middle">1</text>
<line x1="129.7" y1="614.8" x2="129.7" y2="479.0" stroke="#9ca3af"/>
<circle cx="129.7" cy="546.9" r="3" fill="#1f77b4"/>
<text class="small" x="129.7" y="666" text-anchor="middle">2</text>
<line x1="155.5" y1="616.9" x2="155.5" y2="494.7" stroke="#9ca3af"/>
<circle cx="155.5" cy="555.8" r="3" fill="#1f77b4"/>
<text class="small" x="155.5" y="666" text-anchor="middle">3</text>
<line x1="181.3" y1="617.4" x2="181.3" y2="476.8" stroke="#9ca3af"/>
<circle cx="181.3" cy="547.1" r="3" fill="#1f77b4"/>
<text class="small" x="181.3" y="666" text-anchor="middle">4</text>
<line x1="207.2" y1="612.7" x2="207.2" y2="473.1" stroke="#9ca3af"/>
<circle cx="207.2" cy="542.9" r="3" fill="#1f77b4"/>
<text class="small" x="207.2" y="666" text-anchor="middle">5</text>
<line x1="233.0" y1="619.4" x2="233.0" y2="488.9" stroke="#9ca3af"/>
<circle cx="233.0" cy="554.1" r="3" fill="#1f77b4"/>
<text class="small" x="233.0" y="666" text-anchor="middle">6</text>
<polyline class="line" stroke="#1f77b4" points="78.0,540.7 103.8,543.4 129.7,546.9 155.5,555.8 181.3,547.1 207.2,542.9 233.0,554.1"/>
<text x="271" y="385" font-weight="700">ESP 7</text>
<rect x="271" y="395" width="195" height="275" fill="#fff" stroke="#d1d5db"/>
<line class="grid" x1="271" y1="395.0" x2="466" y2="395.0"/>
<line class="grid" x1="271" y1="463.75" x2="466" y2="463.75"/>
<line class="grid" x1="271" y1="532.5" x2="466" y2="532.5"/>
<line class="grid" x1="271" y1="601.25" x2="466" y2="601.25"/>
<line class="grid" x1="271" y1="670.0" x2="466" y2="670.0"/>
<line x1="291.0" y1="615.6" x2="291.0" y2="496.2" stroke="#9ca3af"/>
<circle cx="291.0" cy="555.9" r="3" fill="#1f77b4"/>
<text class="small" x="291.0" y="666" text-anchor="middle">0</text>
<line x1="316.8" y1="612.1" x2="316.8" y2="474.4" stroke="#9ca3af"/>
<circle cx="316.8" cy="543.2" r="3" fill="#1f77b4"/>
<text class="small" x="316.8" y="666" text-anchor="middle">1</text>
<line x1="342.7" y1="617.2" x2="342.7" y2="482.7" stroke="#9ca3af"/>
<circle cx="342.7" cy="550.0" r="3" fill="#1f77b4"/>
<text class="small" x="342.7" y="666" text-anchor="middle">2</text>
<line x1="368.5" y1="616.0" x2="368.5" y2="477.4" stroke="#9ca3af"/>
<circle cx="368.5" cy="546.7" r="3" fill="#1f77b4"/>
<text class="small" x="368.5" y="666" text-anchor="middle">3</text>
<line x1="394.3" y1="617.5" x2="394.3" y2="482.7" stroke="#9ca3af"/>
<circle cx="394.3" cy="550.1" r="3" fill="#1f77b4"/>
<text class="small" x="394.3" y="666" text-anchor="middle">4</text>
<line x1="420.2" y1="617.1" x2="420.2" y2="501.9" stroke="#9ca3af"/>
<circle cx="420.2" cy="559.5" r="3" fill="#1f77b4"/>
<text class="small" x="420.2" y="666" text-anchor="middle">5</text>
<line x1="446.0" y1="620.3" x2="446.0" y2="477.0" stroke="#9ca3af"/>
<circle cx="446.0" cy="548.6" r="3" fill="#1f77b4"/>
<text class="small" x="446.0" y="666" text-anchor="middle">6</text>
<polyline class="line" stroke="#1f77b4" points="291.0,555.9 316.8,543.2 342.7,550.0 368.5,546.7 394.3,550.1 420.2,559.5 446.0,548.6"/>
<text x="484" y="385" font-weight="700">ESP 8</text>
<rect x="484" y="395" width="195" height="275" fill="#fff" stroke="#d1d5db"/>
<line class="grid" x1="484" y1="395.0" x2="679" y2="395.0"/>
<line class="grid" x1="484" y1="463.75" x2="679" y2="463.75"/>
<line class="grid" x1="484" y1="532.5" x2="679" y2="532.5"/>
<line class="grid" x1="484" y1="601.25" x2="679" y2="601.25"/>
<line class="grid" x1="484" y1="670.0" x2="679" y2="670.0"/>
<line x1="504.0" y1="618.1" x2="504.0" y2="474.2" stroke="#9ca3af"/>
<circle cx="504.0" cy="546.1" r="3" fill="#1f77b4"/>
<text class="small" x="504.0" y="666" text-anchor="middle">0</text>
<line x1="529.8" y1="606.8" x2="529.8" y2="446.7" stroke="#9ca3af"/>
<circle cx="529.8" cy="526.8" r="3" fill="#1f77b4"/>
<text class="small" x="529.8" y="666" text-anchor="middle">1</text>
<line x1="555.7" y1="614.5" x2="555.7" y2="504.4" stroke="#9ca3af"/>
<circle cx="555.7" cy="559.4" r="3" fill="#1f77b4"/>
<text class="small" x="555.7" y="666" text-anchor="middle">2</text>
<line x1="581.5" y1="615.0" x2="581.5" y2="490.5" stroke="#9ca3af"/>
<circle cx="581.5" cy="552.8" r="3" fill="#1f77b4"/>
<text class="small" x="581.5" y="666" text-anchor="middle">3</text>
<line x1="607.3" y1="618.2" x2="607.3" y2="482.1" stroke="#9ca3af"/>
<circle cx="607.3" cy="550.2" r="3" fill="#1f77b4"/>
<text class="small" x="607.3" y="666" text-anchor="middle">4</text>
<line x1="633.2" y1="618.4" x2="633.2" y2="497.9" stroke="#9ca3af"/>
<circle cx="633.2" cy="558.2" r="3" fill="#1f77b4"/>
<text class="small" x="633.2" y="666" text-anchor="middle">5</text>
<line x1="659.0" y1="624.2" x2="659.0" y2="495.0" stroke="#9ca3af"/>
<circle cx="659.0" cy="559.6" r="3" fill="#1f77b4"/>
<text class="small" x="659.0" y="666" text-anchor="middle">6</text>
<polyline class="line" stroke="#1f77b4" points="504.0,546.1 529.8,526.8 555.7,559.4 581.5,552.8 607.3,550.2 633.2,558.2 659.0,559.6"/>
<text x="697" y="385" font-weight="700">ESP 9</text>
<rect x="697" y="395" width="195" height="275" fill="#fff" stroke="#d1d5db"/>
<line class="grid" x1="697" y1="395.0" x2="892" y2="395.0"/>
<line class="grid" x1="697" y1="463.75" x2="892" y2="463.75"/>
<line class="grid" x1="697" y1="532.5" x2="892" y2="532.5"/>
<line class="grid" x1="697" y1="601.25" x2="892" y2="601.25"/>
<line class="grid" x1="697" y1="670.0" x2="892" y2="670.0"/>
<line x1="717.0" y1="625.4" x2="717.0" y2="483.2" stroke="#9ca3af"/>
<circle cx="717.0" cy="554.3" r="3" fill="#1f77b4"/>
<text class="small" x="717.0" y="666" text-anchor="middle">0</text>
<line x1="742.8" y1="615.9" x2="742.8" y2="470.9" stroke="#9ca3af"/>
<circle cx="742.8" cy="543.4" r="3" fill="#1f77b4"/>
<text class="small" x="742.8" y="666" text-anchor="middle">1</text>
<line x1="768.7" y1="621.6" x2="768.7" y2="493.6" stroke="#9ca3af"/>
<circle cx="768.7" cy="557.6" r="3" fill="#1f77b4"/>
<text class="small" x="768.7" y="666" text-anchor="middle">2</text>
<line x1="794.5" y1="619.9" x2="794.5" y2="496.0" stroke="#9ca3af"/>
<circle cx="794.5" cy="557.9" r="3" fill="#1f77b4"/>
<text class="small" x="794.5" y="666" text-anchor="middle">3</text>
<line x1="820.3" y1="620.8" x2="820.3" y2="491.3" stroke="#9ca3af"/>
<circle cx="820.3" cy="556.0" r="3" fill="#1f77b4"/>
<text class="small" x="820.3" y="666" text-anchor="middle">4</text>
<line x1="846.2" y1="623.7" x2="846.2" y2="503.3" stroke="#9ca3af"/>
<circle cx="846.2" cy="563.5" r="3" fill="#1f77b4"/>
<text class="small" x="846.2" y="666" text-anchor="middle">5</text>
<line x1="872.0" y1="626.6" x2="872.0" y2="493.4" stroke="#9ca3af"/>
<circle cx="872.0" cy="560.0" r="3" fill="#1f77b4"/>
<text class="small" x="872.0" y="666" text-anchor="middle">6</text>
<polyline class="line" stroke="#1f77b4" points="717.0,554.3 742.8,543.4 768.7,557.6 794.5,557.9 820.3,556.0 846.2,563.5 872.0,560.0"/>
<text x="910" y="385" font-weight="700">ESP 10</text>
<rect x="910" y="395" width="195" height="275" fill="#fff" stroke="#d1d5db"/>
<line class="grid" x1="910" y1="395.0" x2="1105" y2="395.0"/>
<line class="grid" x1="910" y1="463.75" x2="1105" y2="463.75"/>
<line class="grid" x1="910" y1="532.5" x2="1105" y2="532.5"/>
<line class="grid" x1="910" y1="601.25" x2="1105" y2="601.25"/>
<line class="grid" x1="910" y1="670.0" x2="1105" y2="670.0"/>
<line x1="930.0" y1="618.9" x2="930.0" y2="486.1" stroke="#9ca3af"/>
<circle cx="930.0" cy="552.5" r="3" fill="#1f77b4"/>
<text class="small" x="930.0" y="666" text-anchor="middle">0</text>
<line x1="955.8" y1="617.7" x2="955.8" y2="482.6" stroke="#9ca3af"/>
<circle cx="955.8" cy="550.1" r="3" fill="#1f77b4"/>
<text class="small" x="955.8" y="666" text-anchor="middle">1</text>
<line x1="981.7" y1="614.4" x2="981.7" y2="471.1" stroke="#9ca3af"/>
<circle cx="981.7" cy="542.8" r="3" fill="#1f77b4"/>
<text class="small" x="981.7" y="666" text-anchor="middle">2</text>
<line x1="1007.5" y1="615.8" x2="1007.5" y2="474.1" stroke="#9ca3af"/>
<circle cx="1007.5" cy="545.0" r="3" fill="#1f77b4"/>
<text class="small" x="1007.5" y="666" text-anchor="middle">3</text>
<line x1="1033.3" y1="613.7" x2="1033.3" y2="470.5" stroke="#9ca3af"/>
<circle cx="1033.3" cy="542.1" r="3" fill="#1f77b4"/>
<text class="small" x="1033.3" y="666" text-anchor="middle">4</text>
<line x1="1059.2" y1="617.7" x2="1059.2" y2="481.0" stroke="#9ca3af"/>
<circle cx="1059.2" cy="549.4" r="3" fill="#1f77b4"/>
<text class="small" x="1059.2" y="666" text-anchor="middle">5</text>
<line x1="1085.0" y1="625.5" x2="1085.0" y2="489.1" stroke="#9ca3af"/>
<circle cx="1085.0" cy="557.3" r="3" fill="#1f77b4"/>
<text class="small" x="1085.0" y="666" text-anchor="middle">6</text>
<polyline class="line" stroke="#1f77b4" points="930.0,552.5 955.8,550.1 981.7,542.8 1007.5,545.0 1033.3,542.1 1059.2,549.4 1085.0,557.3"/>
<text class="small" x="24" y="740">Y? ?? ??: 10.69 ~ 27.83</text>
</svg>